# xmcd CD database file generated by Grip 3.1.3
# 
# Track frame offsets:
#       150
#       16122
#       41700
#       68400
#       103127
#       123300
#       147975
#       170707
#       185785
#       202235
#       219610
#       245557
#       268057
# 
# Disc length: 4118 seconds
# 
# Revision: 3
# Processed by: cddbd v1.4PL0 Copyright (c) Steve Scherf et al.
# Submitted via: Grip 3.1.3
# 
DISCID=cc10140d,dd10140d
DTITLE=Blues Company - So What
DYEAR=1987
DGENRE=Blues
TTITLE0=What's Wrong
TTITLE1=Cold Blue Moon
TTITLE2=Stay With Me
TTITLE3=Downhome Blues
TTITLE4=Mean Woman Blues
TTITLE5=Rattlesnake Blues
TTITLE6=Pension Blues
TTITLE7=Look Here Baby
TTITLE8=Good Times Boogie
TTITLE9=Teeny Weeny Bit
TTITLE10=Drinkin' Blues
TTITLE11=Mr. TNT
TTITLE12=Black Nite
EXTD=
EXTT0=
EXTT1=
EXTT2=
EXTT3=
EXTT4=
EXTT5=
EXTT6=
EXTT7=
EXTT8=
EXTT9=
EXTT10=
EXTT11=
EXTT12=
PLAYORDER=
